# 3ds Max Wavefront OBJ Exporter v0.99 - (c)2007 guruware
# File Created: 03.05.2022 22:54:18

mtllib cow.mtl

#
# object Box046
#

v  51.5430 129.1375 24.3174
v  46.1416 129.1375 24.3174
v  46.1416 129.1375 18.9161
v  51.5430 129.1375 18.9161
v  51.5430 145.3414 24.3174
v  51.5430 145.3414 18.9161
v  46.1416 145.3414 18.9161
v  46.1416 145.3414 24.3174
v  51.5430 134.5388 18.9161
v  51.5430 134.5388 24.3174
v  51.5430 139.9401 18.9161
v  51.5430 139.9401 24.3174
v  46.1416 134.5388 18.9161
v  46.1416 139.9401 18.9161
v  46.1416 134.5388 24.3174
v  46.1416 139.9401 24.3174
# 16 vertices

vn 0.0000 -1.0000 0.0000
vn -0.0000 1.0000 -0.0000
vn 1.0000 0.0000 -0.0000
vn -0.0000 -0.0000 -1.0000
vn -1.0000 0.0000 0.0000
vn 0.0000 0.0000 1.0000
# 6 vertex normals

vt 0.1395 0.2313 0.0000
vt 0.1395 0.2385 0.0000
vt 0.1335 0.2385 0.0000
vt 0.1335 0.2313 0.0000
vt 0.1455 0.2170 0.0000
vt 0.1517 0.2170 0.0000
vt 0.1517 0.2242 0.0000
vt 0.1455 0.2242 0.0000
vt 0.1395 0.2337 0.0000
vt 0.1335 0.2337 0.0000
vt 0.1444 0.1961 0.0000
vt 0.1531 0.1961 0.0000
vt 0.1531 0.2093 0.0000
vt 0.1444 0.2093 0.0000
vt 0.1454 0.2168 0.0000
vt 0.1516 0.2168 0.0000
vt 0.1516 0.2240 0.0000
vt 0.1454 0.2240 0.0000
vt 0.1442 0.1964 0.0000
vt 0.1529 0.1964 0.0000
vt 0.1529 0.2096 0.0000
vt 0.1442 0.2096 0.0000
vt 0.1456 0.2168 0.0000
vt 0.1518 0.2168 0.0000
vt 0.1518 0.2241 0.0000
vt 0.1456 0.2241 0.0000
vt 0.1442 0.1966 0.0000
vt 0.1529 0.1966 0.0000
vt 0.1529 0.2098 0.0000
vt 0.1442 0.2098 0.0000
vt 0.1454 0.2170 0.0000
vt 0.1516 0.2170 0.0000
vt 0.1516 0.2242 0.0000
vt 0.1454 0.2242 0.0000
vt 0.1445 0.1960 0.0000
vt 0.1531 0.1960 0.0000
vt 0.1531 0.2092 0.0000
vt 0.1445 0.2092 0.0000
vt 0.1455 0.2169 0.0000
vt 0.1517 0.2169 0.0000
vt 0.1517 0.2241 0.0000
vt 0.1455 0.2241 0.0000
# 42 texture coords

o Box046
g Box046
usemtl Skyshock_VR
s 2
f 1/1/1 2/2/1 3/3/1 
f 3/3/1 4/4/1 1/1/1 
s 4
f 5/5/2 6/6/2 7/7/2 
f 7/7/2 8/8/2 5/5/2 
s 8
f 1/4/3 4/1/3 9/9/3 
f 9/9/3 10/10/3 1/4/3 
f 10/11/3 9/12/3 11/13/3 
f 11/13/3 12/14/3 10/11/3 
f 12/15/3 11/16/3 6/17/3 
f 6/17/3 5/18/3 12/15/3 
s 16
f 4/4/4 3/1/4 13/9/4 
f 13/9/4 9/10/4 4/4/4 
f 9/19/4 13/20/4 14/21/4 
f 14/21/4 11/22/4 9/19/4 
f 11/23/4 14/24/4 7/25/4 
f 7/25/4 6/26/4 11/23/4 
s 32
f 3/4/5 2/1/5 15/9/5 
f 15/9/5 13/10/5 3/4/5 
f 13/27/5 15/28/5 16/29/5 
f 16/29/5 14/30/5 13/27/5 
f 14/31/5 16/32/5 8/33/5 
f 8/33/5 7/34/5 14/31/5 
s 64
f 2/4/6 1/1/6 10/9/6 
f 10/9/6 15/10/6 2/4/6 
f 15/35/6 10/36/6 12/37/6 
f 12/37/6 16/38/6 15/35/6 
f 16/39/6 12/40/6 5/41/6 
f 5/41/6 8/42/6 16/39/6 
# 28 faces

#
# object Box044
#

v  -62.2289 1.2310 -13.0387
v  -62.2289 1.2310 -34.6440
v  -40.6236 1.2310 -34.6440
v  -40.6236 1.2310 -13.0387
v  -62.2289 66.0468 -13.0387
v  -40.6236 66.0468 -13.0387
v  -40.6236 66.0468 -34.6440
v  -62.2289 66.0468 -34.6440
# 8 vertices

vn 0.0000 -1.0000 0.0000
vn 0.0000 1.0000 -0.0000
vn 0.0000 0.0000 1.0000
vn 1.0000 0.0000 -0.0000
vn 0.0000 -0.0000 -1.0000
vn -1.0000 0.0000 -0.0000
# 6 vertex normals

vt 0.0968 0.0234 0.0000
vt 0.1435 0.0234 0.0000
vt 0.1435 0.0825 0.0000
vt 0.0968 0.0825 0.0000
vt 0.0969 0.3158 0.0000
vt 0.1426 0.3158 0.0000
vt 0.1426 0.2572 0.0000
vt 0.0969 0.2572 0.0000
vt 0.0510 0.0826 0.0000
vt 0.0970 0.0826 0.0000
vt 0.0970 0.2570 0.0000
vt 0.0510 0.2570 0.0000
vt 0.0972 0.0826 0.0000
vt 0.1437 0.0826 0.0000
vt 0.1437 0.2569 0.0000
vt 0.0972 0.2569 0.0000
vt 0.1436 0.0825 0.0000
vt 0.1894 0.0825 0.0000
vt 0.1894 0.2579 0.0000
vt 0.1436 0.2579 0.0000
vt 0.1895 0.0825 0.0000
vt 0.2362 0.0825 0.0000
vt 0.2362 0.2569 0.0000
vt 0.1895 0.2569 0.0000
# 24 texture coords

o Box044
g Box044
usemtl Skyshock_VR
s 2
f 17/43/7 18/44/7 19/45/7 
f 19/45/7 20/46/7 17/43/7 
s 4
f 21/47/8 22/48/8 23/49/8 
f 23/49/8 24/50/8 21/47/8 
s 8
f 17/51/9 20/52/9 22/53/9 
f 22/53/9 21/54/9 17/51/9 
s 16
f 20/55/10 19/56/10 23/57/10 
f 23/57/10 22/58/10 20/55/10 
s 32
f 19/59/11 18/60/11 24/61/11 
f 24/61/11 23/62/11 19/59/11 
s 64
f 18/63/12 17/64/12 21/65/12 
f 21/65/12 24/66/12 18/63/12 
# 12 faces

#
# object Box047
#

v  51.5430 129.1375 -24.2342
v  46.1416 129.1375 -24.2342
v  46.1416 129.1375 -29.6355
v  51.5430 129.1375 -29.6355
v  51.5430 145.3414 -24.2342
v  51.5430 145.3414 -29.6355
v  46.1416 145.3414 -29.6355
v  46.1416 145.3414 -24.2342
v  51.5430 134.5388 -29.6355
v  51.5430 134.5388 -24.2342
v  51.5430 139.9401 -29.6355
v  51.5430 139.9401 -24.2342
v  46.1416 134.5388 -29.6355
v  46.1416 139.9401 -29.6355
v  46.1416 134.5388 -24.2342
v  46.1416 139.9401 -24.2342
# 16 vertices

vn 0.0000 -1.0000 0.0000
vn -0.0000 1.0000 -0.0000
vn 1.0000 0.0000 -0.0000
vn -0.0000 -0.0000 -1.0000
vn -1.0000 0.0000 0.0000
vn 0.0000 0.0000 1.0000
# 6 vertex normals

vt 0.1395 0.2313 0.0000
vt 0.1395 0.2385 0.0000
vt 0.1335 0.2385 0.0000
vt 0.1335 0.2313 0.0000
vt 0.1455 0.2170 0.0000
vt 0.1517 0.2170 0.0000
vt 0.1517 0.2242 0.0000
vt 0.1455 0.2242 0.0000
vt 0.1395 0.2337 0.0000
vt 0.1335 0.2337 0.0000
vt 0.1444 0.1961 0.0000
vt 0.1531 0.1961 0.0000
vt 0.1531 0.2093 0.0000
vt 0.1444 0.2093 0.0000
vt 0.1454 0.2168 0.0000
vt 0.1516 0.2168 0.0000
vt 0.1516 0.2240 0.0000
vt 0.1454 0.2240 0.0000
vt 0.1442 0.1964 0.0000
vt 0.1529 0.1964 0.0000
vt 0.1529 0.2096 0.0000
vt 0.1442 0.2096 0.0000
vt 0.1456 0.2168 0.0000
vt 0.1518 0.2168 0.0000
vt 0.1518 0.2241 0.0000
vt 0.1456 0.2241 0.0000
vt 0.1442 0.1966 0.0000
vt 0.1529 0.1966 0.0000
vt 0.1529 0.2098 0.0000
vt 0.1442 0.2098 0.0000
vt 0.1454 0.2170 0.0000
vt 0.1516 0.2170 0.0000
vt 0.1516 0.2242 0.0000
vt 0.1454 0.2242 0.0000
vt 0.1445 0.1960 0.0000
vt 0.1531 0.1960 0.0000
vt 0.1531 0.2092 0.0000
vt 0.1445 0.2092 0.0000
vt 0.1455 0.2169 0.0000
vt 0.1517 0.2169 0.0000
vt 0.1517 0.2241 0.0000
vt 0.1455 0.2241 0.0000
# 42 texture coords

o Box047
g Box047
usemtl Skyshock_VR
s 2
f 25/67/13 26/68/13 27/69/13 
f 27/69/13 28/70/13 25/67/13 
s 4
f 29/71/14 30/72/14 31/73/14 
f 31/73/14 32/74/14 29/71/14 
s 8
f 25/70/15 28/67/15 33/75/15 
f 33/75/15 34/76/15 25/70/15 
f 34/77/15 33/78/15 35/79/15 
f 35/79/15 36/80/15 34/77/15 
f 36/81/15 35/82/15 30/83/15 
f 30/83/15 29/84/15 36/81/15 
s 16
f 28/70/16 27/67/16 37/75/16 
f 37/75/16 33/76/16 28/70/16 
f 33/85/16 37/86/16 38/87/16 
f 38/87/16 35/88/16 33/85/16 
f 35/89/16 38/90/16 31/91/16 
f 31/91/16 30/92/16 35/89/16 
s 32
f 27/70/17 26/67/17 39/75/17 
f 39/75/17 37/76/17 27/70/17 
f 37/93/17 39/94/17 40/95/17 
f 40/95/17 38/96/17 37/93/17 
f 38/97/17 40/98/17 32/99/17 
f 32/99/17 31/100/17 38/97/17 
s 64
f 26/70/18 25/67/18 34/75/18 
f 34/75/18 39/76/18 26/70/18 
f 39/101/18 34/102/18 36/103/18 
f 36/103/18 40/104/18 39/101/18 
f 40/105/18 36/106/18 29/107/18 
f 29/107/18 32/108/18 40/105/18 
# 28 faces

#
# object Box040
#

v  62.1819 91.1040 18.9454
v  29.7740 91.1040 18.9454
v  29.7740 91.1040 -24.2651
v  62.1819 91.1040 -24.2651
v  62.1819 134.3146 18.9454
v  62.1819 134.3146 -24.2651
v  29.7740 134.3146 -24.2651
v  29.7740 134.3146 18.9454
# 8 vertices

vn 0.0000 -1.0000 0.0000
vn -0.0000 1.0000 -0.0000
vn 1.0000 0.0000 -0.0000
vn -0.0000 -0.0000 -1.0000
vn -1.0000 0.0000 0.0000
vn 0.0000 0.0000 1.0000
# 6 vertex normals

vt 0.1489 0.3752 0.0000
vt 0.2411 0.3752 0.0000
vt 0.2411 0.4625 0.0000
vt 0.1489 0.4625 0.0000
vt 0.1495 0.5794 0.0000
vt 0.2411 0.5794 0.0000
vt 0.2411 0.6654 0.0000
vt 0.1495 0.6654 0.0000
vt 0.1486 0.4626 0.0000
vt 0.2416 0.4626 0.0000
vt 0.2416 0.5779 0.0000
vt 0.1486 0.5779 0.0000
vt 0.2417 0.4631 0.0000
vt 0.3104 0.4631 0.0000
vt 0.3104 0.5779 0.0000
vt 0.2417 0.5779 0.0000
vt 0.3107 0.4626 0.0000
vt 0.4033 0.4626 0.0000
vt 0.4033 0.5790 0.0000
vt 0.3107 0.5790 0.0000
vt 0.0795 0.4627 0.0000
vt 0.1484 0.4627 0.0000
vt 0.1484 0.5779 0.0000
vt 0.0795 0.5779 0.0000
# 24 texture coords

o Box040
g Box040
usemtl Skyshock_VR
s 2
f 41/109/19 42/110/19 43/111/19 
f 43/111/19 44/112/19 41/109/19 
s 4
f 45/113/20 46/114/20 47/115/20 
f 47/115/20 48/116/20 45/113/20 
s 8
f 41/117/21 44/118/21 46/119/21 
f 46/119/21 45/120/21 41/117/21 
s 16
f 44/121/22 43/122/22 47/123/22 
f 47/123/22 46/124/22 44/121/22 
s 32
f 43/125/23 42/126/23 48/127/23 
f 48/127/23 47/128/23 43/125/23 
s 64
f 42/129/24 41/130/24 45/131/24 
f 45/131/24 48/132/24 42/129/24 
# 12 faces

#
# object Box041
#

v  35.0418 66.1597 30.2046
v  -62.1819 66.1597 30.2047
v  -62.1819 66.1597 -34.6112
v  35.0418 66.1597 -34.6112
v  35.0418 120.1729 30.2046
v  35.0418 120.1729 -34.6112
v  -62.1819 120.1729 -34.6112
v  -62.1819 120.1729 30.2047
# 8 vertices

vn 0.0000 -1.0000 0.0000
vn -0.0000 1.0000 -0.0000
vn 1.0000 0.0000 -0.0000
vn -0.0000 -0.0000 -1.0000
vn -1.0000 0.0000 0.0000
vn 0.0000 0.0000 1.0000
# 6 vertex normals

vt 0.7200 0.7834 0.0000
vt 0.7200 0.5205 0.0000
vt 0.5812 0.5205 0.0000
vt 0.5812 0.7834 0.0000
vt 0.9756 0.7835 0.0000
vt 0.8370 0.7835 0.0000
vt 0.8370 0.5216 0.0000
vt 0.9756 0.5216 0.0000
vt 0.7187 0.9288 0.0000
vt 0.5823 0.9288 0.0000
vt 0.5823 0.7835 0.0000
vt 0.7187 0.7835 0.0000
vt 0.5811 0.7833 0.0000
vt 0.5811 0.5218 0.0000
vt 0.4650 0.5218 0.0000
vt 0.4650 0.7833 0.0000
vt 0.7197 0.5202 0.0000
vt 0.5811 0.5202 0.0000
vt 0.5811 0.3752 0.0000
vt 0.7197 0.3752 0.0000
vt 0.7210 0.5217 0.0000
vt 0.7210 0.7836 0.0000
vt 0.8359 0.7836 0.0000
vt 0.8359 0.5217 0.0000
# 24 texture coords

o Box041
g Box041
usemtl Skyshock_VR
s 2
f 49/133/25 50/134/25 51/135/25 
f 51/135/25 52/136/25 49/133/25 
s 4
f 53/137/26 54/138/26 55/139/26 
f 55/139/26 56/140/26 53/137/26 
s 8
f 49/141/27 52/142/27 54/143/27 
f 54/143/27 53/144/27 49/141/27 
s 16
f 52/145/28 51/146/28 55/147/28 
f 55/147/28 54/148/28 52/145/28 
s 32
f 51/149/29 50/150/29 56/151/29 
f 56/151/29 55/152/29 51/149/29 
s 64
f 50/153/30 49/154/30 53/155/30 
f 53/155/30 56/156/30 50/153/30 
# 12 faces

#
# object Box048
#

v  -62.2289 1.2310 30.1833
v  -62.2289 1.2310 8.5780
v  -40.6236 1.2310 8.5780
v  -40.6236 1.2310 30.1833
v  -62.2289 66.0468 30.1833
v  -40.6236 66.0468 30.1833
v  -40.6236 66.0468 8.5780
v  -62.2289 66.0468 8.5780
# 8 vertices

vn 0.0000 -1.0000 0.0000
vn 0.0000 1.0000 -0.0000
vn 0.0000 0.0000 1.0000
vn 1.0000 0.0000 -0.0000
vn 0.0000 -0.0000 -1.0000
vn -1.0000 0.0000 -0.0000
# 6 vertex normals

vt 0.0968 0.0234 0.0000
vt 0.1435 0.0234 0.0000
vt 0.1435 0.0825 0.0000
vt 0.0968 0.0825 0.0000
vt 0.0969 0.3158 0.0000
vt 0.1426 0.3158 0.0000
vt 0.1426 0.2572 0.0000
vt 0.0969 0.2572 0.0000
vt 0.0510 0.0826 0.0000
vt 0.0970 0.0826 0.0000
vt 0.0970 0.2570 0.0000
vt 0.0510 0.2570 0.0000
vt 0.0972 0.0826 0.0000
vt 0.1437 0.0826 0.0000
vt 0.1437 0.2569 0.0000
vt 0.0972 0.2569 0.0000
vt 0.1436 0.0825 0.0000
vt 0.1894 0.0825 0.0000
vt 0.1894 0.2579 0.0000
vt 0.1436 0.2579 0.0000
vt 0.1895 0.0825 0.0000
vt 0.2362 0.0825 0.0000
vt 0.2362 0.2569 0.0000
vt 0.1895 0.2569 0.0000
# 24 texture coords

o Box048
g Box048
usemtl Skyshock_VR
s 2
f 57/157/31 58/158/31 59/159/31 
f 59/159/31 60/160/31 57/157/31 
s 4
f 61/161/32 62/162/32 63/163/32 
f 63/163/32 64/164/32 61/161/32 
s 8
f 57/165/33 60/166/33 62/167/33 
f 62/167/33 61/168/33 57/165/33 
s 16
f 60/169/34 59/170/34 63/171/34 
f 63/171/34 62/172/34 60/169/34 
s 32
f 59/173/35 58/174/35 64/175/35 
f 64/175/35 63/176/35 59/173/35 
s 64
f 58/177/36 57/178/36 61/179/36 
f 61/179/36 64/180/36 58/177/36 
# 12 faces

#
# object Box049
#

v  13.3953 1.2310 30.1833
v  13.3953 1.2310 8.5780
v  35.0005 1.2310 8.5780
v  35.0005 1.2310 30.1833
v  13.3953 66.0468 30.1833
v  35.0005 66.0468 30.1833
v  35.0005 66.0468 8.5780
v  13.3953 66.0468 8.5780
# 8 vertices

vn 0.0000 -1.0000 0.0000
vn 0.0000 1.0000 -0.0000
vn 0.0000 0.0000 1.0000
vn 1.0000 0.0000 -0.0000
vn 0.0000 -0.0000 -1.0000
vn -1.0000 0.0000 -0.0000
# 6 vertex normals

vt 0.0968 0.0234 0.0000
vt 0.1435 0.0234 0.0000
vt 0.1435 0.0825 0.0000
vt 0.0968 0.0825 0.0000
vt 0.0969 0.3158 0.0000
vt 0.1426 0.3158 0.0000
vt 0.1426 0.2572 0.0000
vt 0.0969 0.2572 0.0000
vt 0.0510 0.0826 0.0000
vt 0.0970 0.0826 0.0000
vt 0.0970 0.2570 0.0000
vt 0.0510 0.2570 0.0000
vt 0.0972 0.0826 0.0000
vt 0.1437 0.0826 0.0000
vt 0.1437 0.2569 0.0000
vt 0.0972 0.2569 0.0000
vt 0.1436 0.0825 0.0000
vt 0.1894 0.0825 0.0000
vt 0.1894 0.2579 0.0000
vt 0.1436 0.2579 0.0000
vt 0.1895 0.0825 0.0000
vt 0.2362 0.0825 0.0000
vt 0.2362 0.2569 0.0000
vt 0.1895 0.2569 0.0000
# 24 texture coords

o Box049
g Box049
usemtl Skyshock_VR
s 2
f 65/181/37 66/182/37 67/183/37 
f 67/183/37 68/184/37 65/181/37 
s 4
f 69/185/38 70/186/38 71/187/38 
f 71/187/38 72/188/38 69/185/38 
s 8
f 65/189/39 68/190/39 70/191/39 
f 70/191/39 69/192/39 65/189/39 
s 16
f 68/193/40 67/194/40 71/195/40 
f 71/195/40 70/196/40 68/193/40 
s 32
f 67/197/41 66/198/41 72/199/41 
f 72/199/41 71/200/41 67/197/41 
s 64
f 66/201/42 65/202/42 69/203/42 
f 69/203/42 72/204/42 66/201/42 
# 12 faces

#
# object Box050
#

v  13.3953 1.2310 -13.0387
v  13.3953 1.2310 -34.6440
v  35.0005 1.2310 -34.6440
v  35.0005 1.2310 -13.0387
v  13.3953 66.0468 -13.0387
v  35.0005 66.0468 -13.0387
v  35.0005 66.0468 -34.6440
v  13.3953 66.0468 -34.6440
# 8 vertices

vn 0.0000 -1.0000 0.0000
vn 0.0000 1.0000 -0.0000
vn 0.0000 0.0000 1.0000
vn 1.0000 0.0000 -0.0000
vn 0.0000 -0.0000 -1.0000
vn -1.0000 0.0000 -0.0000
# 6 vertex normals

vt 0.0968 0.0234 0.0000
vt 0.1435 0.0234 0.0000
vt 0.1435 0.0825 0.0000
vt 0.0968 0.0825 0.0000
vt 0.0969 0.3158 0.0000
vt 0.1426 0.3158 0.0000
vt 0.1426 0.2572 0.0000
vt 0.0969 0.2572 0.0000
vt 0.0510 0.0826 0.0000
vt 0.0970 0.0826 0.0000
vt 0.0970 0.2570 0.0000
vt 0.0510 0.2570 0.0000
vt 0.0972 0.0826 0.0000
vt 0.1437 0.0826 0.0000
vt 0.1437 0.2569 0.0000
vt 0.0972 0.2569 0.0000
vt 0.1436 0.0825 0.0000
vt 0.1894 0.0825 0.0000
vt 0.1894 0.2579 0.0000
vt 0.1436 0.2579 0.0000
vt 0.1895 0.0825 0.0000
vt 0.2362 0.0825 0.0000
vt 0.2362 0.2569 0.0000
vt 0.1895 0.2569 0.0000
# 24 texture coords

o Box050
g Box050
usemtl Skyshock_VR
s 2
f 73/205/43 74/206/43 75/207/43 
f 75/207/43 76/208/43 73/205/43 
s 4
f 77/209/44 78/210/44 79/211/44 
f 79/211/44 80/212/44 77/209/44 
s 8
f 73/213/45 76/214/45 78/215/45 
f 78/215/45 77/216/45 73/213/45 
s 16
f 76/217/46 75/218/46 79/219/46 
f 79/219/46 78/220/46 76/217/46 
s 32
f 75/221/47 74/222/47 80/223/47 
f 80/223/47 79/224/47 75/221/47 
s 64
f 74/225/48 73/226/48 77/227/48 
f 77/227/48 80/228/48 74/225/48 
# 12 faces

