# 3ds Max Wavefront OBJ Exporter v0.97b - (c)2007 guruware
# File Created: 03.05.2022 20:54:41

mtllib limb.mtl

#
# object Arm2
#

v  -2.2500 -2.2500 15.0000
v  -2.2500 2.2500 15.0000
v  -2.2500 2.2500 -15.0000
v  -2.2500 -2.2500 -15.0000
v  2.2500 2.2500 -15.0000
v  2.2500 2.2500 15.0000
v  2.2500 -2.2500 15.0000
v  2.2500 -2.2500 -15.0000
# 8 vertices

vn -0.5774 -0.5774 0.5774
vn -0.5774 0.5774 0.5774
vn -0.5774 0.5774 -0.5774
vn -0.5774 -0.5774 -0.5774
vn 0.5774 0.5774 -0.5774
vn 0.5774 0.5774 0.5774
vn 0.5774 -0.5774 0.5774
vn 0.5774 -0.5774 -0.5774
# 8 vertex normals

vt 0.0000 0.0000 0.0000
vt 0.0000 1.0000 0.0000
vt 1.0000 1.0000 0.0000
vt 1.0000 0.0000 0.0000
# 4 texture coords

o Arm2
g Arm2
usemtl 01___Default
s 2
f 1/1/1 2/2/2 3/3/3 4/4/4 
s 4
f 5/2/5 6/3/6 7/4/7 8/1/8 
s 8
f 8/2/8 7/3/7 1/4/1 4/1/4 
s 16
f 7/2/7 6/3/6 2/4/2 1/1/1 
s 32
f 6/2/6 5/3/5 3/4/3 2/1/2 
s 64
f 5/2/5 8/3/8 4/4/4 3/1/3 
# 6 polygons

