# 3ds Max Wavefront OBJ Exporter v0.97b - (c)2007 guruware
# File Created: 04.05.2022 18:50:03

mtllib limb.mtl

#
# object Arm2
#

v  -2.0000 2.0000 13.3333
v  -2.0000 2.0000 -13.3333
v  -2.0000 -2.0000 -13.3333
v  -2.0000 -2.0000 13.3333
v  2.0000 2.0000 13.3333
v  2.0000 -2.0000 13.3333
v  2.0000 -2.0000 -13.3333
v  2.0000 2.0000 -13.3333
# 8 vertices

vn -0.5774 0.5774 0.5774
vn -0.5774 0.5774 -0.5774
vn -0.5774 -0.5774 -0.5774
vn -0.5774 -0.5774 0.5774
vn 0.5774 0.5774 0.5774
vn 0.5774 -0.5774 0.5774
vn 0.5774 -0.5774 -0.5774
vn 0.5774 0.5774 -0.5774
# 8 vertex normals

vt 0.0000 1.0000 0.0000
vt 1.0000 1.0000 0.0000
vt 1.0000 0.0000 0.0000
vt 0.0000 0.0000 0.0000
# 4 texture coords

o Arm2
g Arm2
usemtl 01___Default
s 2
f 1/1/1 2/2/2 3/3/3 4/4/4 
s 4
f 5/2/5 6/3/6 7/4/7 8/1/8 
s 8
f 6/2/6 4/3/4 3/4/3 7/1/7 
s 16
f 5/2/5 1/3/1 4/4/4 6/1/6 
s 32
f 8/2/8 2/3/2 1/4/1 5/1/5 
s 64
f 7/2/7 3/3/3 2/4/2 8/1/8 
# 6 polygons

