# 3ds Max Wavefront OBJ Exporter v0.99 - (c)2007 guruware
# File Created: 24.05.2022 16:57:25

mtllib Itadori.mtl

#
# object Box001
#

v  -30.2110 71.9673 45.2679
v  -30.2110 71.9673 -15.6623
v  28.7843 71.9673 -15.6623
v  28.7843 71.9673 45.2679
v  -30.2110 115.0083 45.2679
v  28.7843 115.0083 45.2679
v  28.7843 115.0083 -15.6623
v  -30.2110 115.0083 -15.6623
v  -19.8502 35.9226 35.9216
v  -19.8502 35.9226 -4.5740
v  19.7787 35.9226 -4.5740
v  19.7787 35.9226 35.9216
v  -19.8502 72.1088 35.9216
v  19.7787 72.1088 35.9216
v  19.7787 72.1088 -4.5740
v  -19.8502 72.1088 -4.5740
v  20.1022 65.0256 21.9036
v  30.0273 65.0256 21.9036
v  30.0273 65.0256 7.5244
v  20.1022 65.0256 7.5244
v  20.1022 26.7617 21.9036
v  20.1022 26.7617 7.5244
v  30.0273 26.7617 7.5244
v  30.0273 26.7617 21.9036
v  -29.8531 65.0256 22.0845
v  -19.9280 65.0256 22.0845
v  -19.9280 65.0256 7.7053
v  -29.8531 65.0256 7.7053
v  -29.8531 26.7617 22.0845
v  -29.8531 26.7617 7.7053
v  -19.9280 26.7617 7.7053
v  -19.9280 26.7617 22.0845
v  -19.9398 35.9339 35.9332
v  19.9306 35.9339 35.9332
v  19.9306 35.9339 -4.5785
v  -19.9398 35.9339 -4.5785
v  -19.9398 27.2404 35.9332
v  -19.9398 27.2404 -4.5785
v  19.9306 27.2404 -4.5785
v  19.9306 27.2404 35.9332
v  -19.8355 27.2828 27.0064
v  -5.3965 27.2828 27.0064
v  -5.3965 27.2828 2.9022
v  -19.8355 27.2828 2.9022
v  -19.8355 6.9816 27.0064
v  -19.8355 6.9816 2.9022
v  -5.3965 6.9816 2.9022
v  -5.3965 6.9816 27.0064
v  5.4132 27.2828 27.0064
v  19.8523 27.2828 27.0064
v  19.8523 27.2828 2.9022
v  5.4132 27.2828 2.9022
v  5.4132 6.9816 27.0064
v  5.4132 6.9816 2.9022
v  19.8523 6.9816 2.9022
v  19.8523 6.9816 27.0064
v  5.4131 -0.2798 27.1692
v  5.4131 -0.2798 2.9297
v  19.8609 -0.2798 2.9297
v  19.8609 -0.2798 27.1692
v  5.4131 6.9740 27.1692
v  19.8609 6.9740 27.1692
v  19.8609 6.9740 2.9297
v  5.4131 6.9740 2.9297
v  -19.7918 -0.2798 27.1692
v  -19.7918 -0.2798 2.9297
v  -5.3440 -0.2798 2.9297
v  -5.3440 -0.2798 27.1692
v  -19.7918 6.9740 27.1692
v  -5.3440 6.9740 27.1692
v  -5.3440 6.9740 2.9297
v  -19.7918 6.9740 2.9297
# 72 vertices

vn 0.0000 -1.0000 -0.0000
vn 0.0000 1.0000 -0.0000
vn 0.0000 0.0000 1.0000
vn 1.0000 0.0000 -0.0000
vn 0.0000 0.0000 -1.0000
vn -1.0000 0.0000 -0.0000
# 6 vertex normals

vt 1.0000 0.0000 0.0000
vt 1.0000 1.0000 0.0000
vt 0.0000 1.0000 0.0000
vt 0.0000 0.0000 0.0000
# 4 texture coords

o Box001
g Box001
usemtl 07___Default
s 2
f 1/1/1 2/2/1 3/3/1 
f 3/3/1 4/4/1 1/1/1 
usemtl 02___Default
s 4
f 5/4/2 6/1/2 7/2/2 
f 7/2/2 8/3/2 5/4/2 
usemtl 01___Default
s 8
f 1/4/3 4/1/3 6/2/3 
f 6/2/3 5/3/3 1/4/3 
usemtl 03___Default
s 16
f 4/4/4 3/1/4 7/2/4 
f 7/2/4 6/3/4 4/4/4 
usemtl 08___Default
s 32
f 3/4/5 2/1/5 8/2/5 
f 8/2/5 7/3/5 3/4/5 
usemtl 04___Default
s 64
f 2/4/6 1/1/6 5/2/6 
f 5/2/6 8/3/6 2/4/6 
usemtl 14___Default
s 2
f 9/1/1 10/2/1 11/3/1 
f 11/3/1 12/4/1 9/1/1 
usemtl 07___Default
s 4
f 13/4/2 14/1/2 15/2/2 
f 15/2/2 16/3/2 13/4/2 
usemtl 09___Default
s 8
f 9/4/3 12/1/3 14/2/3 
f 14/2/3 13/3/3 9/4/3 
usemtl 13___Default
s 16
f 12/4/4 11/1/4 15/2/4 
f 15/2/4 14/3/4 12/4/4 
usemtl 10___Default
s 32
f 11/4/5 10/1/5 16/2/5 
f 16/2/5 15/3/5 11/4/5 
usemtl 13___Default
s 64
f 10/4/6 9/1/6 13/2/6 
f 13/2/6 16/3/6 10/4/6 
usemtl 14___Default
s 2
f 17/1/2 18/4/2 19/3/2 
f 19/3/2 20/2/2 17/1/2 
usemtl 07___Default
s 4
f 21/4/1 22/3/1 23/2/1 
f 23/2/1 24/1/1 21/4/1 
usemtl 15___Default
s 8
f 17/4/3 21/3/3 24/2/3 
f 24/2/3 18/1/3 17/4/3 
s 16
f 18/4/4 24/3/4 23/2/4 
f 23/2/4 19/1/4 18/4/4 
s 32
f 19/4/5 23/3/5 22/2/5 
f 22/2/5 20/1/5 19/4/5 
s 64
f 20/4/6 22/3/6 21/2/6 
f 21/2/6 17/1/6 20/4/6 
usemtl 14___Default
s 2
f 25/1/2 26/4/2 27/3/2 
f 27/3/2 28/2/2 25/1/2 
usemtl 07___Default
s 4
f 29/4/1 30/3/1 31/2/1 
f 31/2/1 32/1/1 29/4/1 
usemtl 15___Default
s 8
f 25/4/3 29/3/3 32/2/3 
f 32/2/3 26/1/3 25/4/3 
s 16
f 26/4/4 32/3/4 31/2/4 
f 31/2/4 27/1/4 26/4/4 
s 32
f 27/4/5 31/3/5 30/2/5 
f 30/2/5 28/1/5 27/4/5 
s 64
f 28/4/6 30/3/6 29/2/6 
f 29/2/6 25/1/6 28/4/6 
usemtl 14___Default
s 2
f 33/1/2 34/4/2 35/3/2 
f 35/3/2 36/2/2 33/1/2 
s 4
f 37/4/1 38/3/1 39/2/1 
f 39/2/1 40/1/1 37/4/1 
s 8
f 33/4/3 37/3/3 40/2/3 
f 40/2/3 34/1/3 33/4/3 
s 16
f 34/4/4 40/3/4 39/2/4 
f 39/2/4 35/1/4 34/4/4 
s 32
f 35/4/5 39/3/5 38/2/5 
f 38/2/5 36/1/5 35/4/5 
s 64
f 36/4/6 38/3/6 37/2/6 
f 37/2/6 33/1/6 36/4/6 
s 2
f 41/1/2 42/4/2 43/3/2 
f 43/3/2 44/2/2 41/1/2 
s 4
f 45/4/1 46/3/1 47/2/1 
f 47/2/1 48/1/1 45/4/1 
s 8
f 41/4/3 45/3/3 48/2/3 
f 48/2/3 42/1/3 41/4/3 
s 16
f 42/4/4 48/3/4 47/2/4 
f 47/2/4 43/1/4 42/4/4 
s 32
f 43/4/5 47/3/5 46/2/5 
f 46/2/5 44/1/5 43/4/5 
s 64
f 44/4/6 46/3/6 45/2/6 
f 45/2/6 41/1/6 44/4/6 
s 2
f 49/1/2 50/4/2 51/3/2 
f 51/3/2 52/2/2 49/1/2 
s 4
f 53/4/1 54/3/1 55/2/1 
f 55/2/1 56/1/1 53/4/1 
s 8
f 49/4/3 53/3/3 56/2/3 
f 56/2/3 50/1/3 49/4/3 
s 16
f 50/4/4 56/3/4 55/2/4 
f 55/2/4 51/1/4 50/4/4 
s 32
f 51/4/5 55/3/5 54/2/5 
f 54/2/5 52/1/5 51/4/5 
s 64
f 52/4/6 54/3/6 53/2/6 
f 53/2/6 49/1/6 52/4/6 
usemtl 16___Default
s 2
f 57/1/1 58/2/1 59/3/1 
f 59/3/1 60/4/1 57/1/1 
usemtl 21___Default
s 4
f 61/4/2 62/1/2 63/2/2 
f 63/2/2 64/3/2 61/4/2 
s 8
f 57/4/3 60/1/3 62/2/3 
f 62/2/3 61/3/3 57/4/3 
s 16
f 60/4/4 59/1/4 63/2/4 
f 63/2/4 62/3/4 60/4/4 
s 32
f 59/4/5 58/1/5 64/2/5 
f 64/2/5 63/3/5 59/4/5 
s 64
f 58/4/6 57/1/6 61/2/6 
f 61/2/6 64/3/6 58/4/6 
usemtl 16___Default
s 2
f 65/1/1 66/2/1 67/3/1 
f 67/3/1 68/4/1 65/1/1 
usemtl 21___Default
s 4
f 69/4/2 70/1/2 71/2/2 
f 71/2/2 72/3/2 69/4/2 
s 8
f 65/4/3 68/1/3 70/2/3 
f 70/2/3 69/3/3 65/4/3 
s 16
f 68/4/4 67/1/4 71/2/4 
f 71/2/4 70/3/4 68/4/4 
s 32
f 67/4/5 66/1/5 72/2/5 
f 72/2/5 71/3/5 67/4/5 
s 64
f 66/4/6 65/1/6 69/2/6 
f 69/2/6 72/3/6 66/4/6 
# 108 faces

